<svg width="41" height="39" viewBox="0 0 41 39" fill="none" xmlns="http://www.w3.org/2000/svg">
<path d="M40.4287 36.8267C37.1233 31.1745 31.8251 27.3153 25.6863 25.9239C28.6034 24.7419 31.015 22.5948 32.5091 19.8494C34.0032 17.1039 34.4871 13.9305 33.8781 10.8714C33.2691 7.81223 31.6051 5.05713 29.1703 3.07678C26.7355 1.09644 23.6809 0.013745 20.5286 0.0136769C17.3763 0.0136087 14.3217 1.09617 11.8868 3.07641C9.4519 5.05665 7.78774 7.81168 7.17865 10.8708C6.56955 13.9299 7.05332 17.1033 8.5473 19.8489C10.0413 22.5944 12.4528 24.7416 15.3697 25.9237C9.23898 27.3089 3.93253 31.1738 0.626939 36.8258C0.53125 37.0067 0.509934 37.2172 0.567446 37.4133C0.624957 37.6094 0.756847 37.7759 0.935566 37.8781C1.11428 37.9803 1.32601 38.0102 1.52651 37.9617C1.72701 37.9131 1.90079 37.7898 2.01154 37.6175C5.92143 30.9265 12.8486 26.931 20.528 26.9311C28.2074 26.9313 35.1344 30.9271 39.044 37.6183C39.1142 37.7385 39.2151 37.8383 39.3366 37.9078C39.4581 37.9773 39.596 38.0139 39.7363 38.0141C39.877 38.0145 40.0152 37.9776 40.1365 37.9072C40.32 37.8021 40.4538 37.6293 40.5086 37.4267C40.5634 37.2241 40.5346 37.0083 40.4287 36.8267ZM8.52296 13.4735C8.52301 11.125 9.22717 8.82928 10.5464 6.87662C11.8656 4.92395 13.7406 3.40205 15.9343 2.50337C18.128 1.6047 20.5419 1.3696 22.8707 1.82782C25.1995 2.28603 27.3386 3.41698 29.0176 5.07765C30.6965 6.73832 31.8399 8.85411 32.303 11.1575C32.7662 13.4609 32.5284 15.8483 31.6197 18.018C30.711 20.1877 29.1722 22.0422 27.1979 23.3469C25.2236 24.6516 22.9025 25.348 20.5281 25.3479C17.3452 25.3442 14.2938 24.0919 12.0432 21.8658C9.79257 19.6397 8.5266 16.6216 8.52296 13.4735Z" fill="white"/>
</svg>
